<svg width="104" height="16" viewBox="0 0 104 16" fill="none" xmlns="http://www.w3.org/2000/svg">
<path d="M3.58203 14.1299C3.36328 14.1299 3.1377 14.0957 2.90527 14.0273C2.67741 13.9635 2.4541 13.8519 2.23535 13.6924C2.0166 13.5283 1.80924 13.3118 1.61328 13.043C1.41732 12.7695 1.24414 12.4277 1.09375 12.0176C0.947917 11.6029 0.831706 11.1107 0.745117 10.541C0.658529 9.97135 0.615234 9.31055 0.615234 8.55859C0.615234 7.80664 0.658529 7.14583 0.745117 6.57617C0.831706 6.00651 0.947917 5.5166 1.09375 5.10645C1.24414 4.69173 1.41732 4.34993 1.61328 4.08105C1.80924 3.80762 2.0166 3.59115 2.23535 3.43164C2.4541 3.26758 2.67741 3.15365 2.90527 3.08984C3.1377 3.02148 3.36328 2.9873 3.58203 2.9873C3.79622 2.9873 4.01953 3.02148 4.25195 3.08984C4.48438 3.15365 4.70996 3.26758 4.92871 3.43164C5.14746 3.59115 5.35482 3.80762 5.55078 4.08105C5.74674 4.34993 5.91764 4.69173 6.06348 5.10645C6.21387 5.5166 6.33236 6.00651 6.41895 6.57617C6.50553 7.14583 6.54883 7.80664 6.54883 8.55859C6.54883 9.31055 6.50553 9.97135 6.41895 10.541C6.33236 11.1107 6.21387 11.6029 6.06348 12.0176C5.91764 12.4277 5.74674 12.7695 5.55078 13.043C5.35482 13.3118 5.14746 13.5283 4.92871 13.6924C4.70996 13.8519 4.48438 13.9635 4.25195 14.0273C4.01953 14.0957 3.79622 14.1299 3.58203 14.1299ZM3.58203 12.8721C3.77344 12.8721 3.96712 12.8037 4.16309 12.667C4.35905 12.5257 4.53451 12.291 4.68945 11.9629C4.84896 11.6302 4.97884 11.1882 5.0791 10.6367C5.17936 10.0807 5.22949 9.38802 5.22949 8.55859C5.22949 7.72917 5.17936 7.03874 5.0791 6.4873C4.97884 5.93132 4.84896 5.48926 4.68945 5.16113C4.53451 4.82845 4.35905 4.59375 4.16309 4.45703C3.96712 4.31576 3.77344 4.24512 3.58203 4.24512C3.39062 4.24512 3.19694 4.31576 3.00098 4.45703C2.80501 4.59375 2.62728 4.82845 2.46777 5.16113C2.31283 5.48926 2.18522 5.93132 2.08496 6.4873C1.9847 7.03874 1.93457 7.72917 1.93457 8.55859C1.93457 9.38802 1.9847 10.0807 2.08496 10.6367C2.18522 11.1882 2.31283 11.6302 2.46777 11.9629C2.62728 12.291 2.80501 12.5257 3.00098 12.667C3.19694 12.8037 3.39062 12.8721 3.58203 12.8721ZM8.16895 3.11035H9.38574V14H8.16895V3.11035ZM11.1016 11.7305C11.1016 10.9922 11.3613 10.4111 11.8809 9.9873C12.4049 9.56348 13.1751 9.3265 14.1914 9.27637V9.13281C14.1914 8.70443 14.0889 8.36947 13.8838 8.12793C13.6833 7.88639 13.4076 7.76562 13.0566 7.76562C12.8743 7.76562 12.6852 7.7998 12.4893 7.86816C12.2979 7.93197 12.1064 8.01855 11.915 8.12793L11.4502 7.03418C11.7373 6.88835 12.0381 6.78125 12.3525 6.71289C12.667 6.64453 12.9518 6.61035 13.207 6.61035C13.5352 6.61035 13.8337 6.66732 14.1025 6.78125C14.3714 6.89518 14.6016 7.05924 14.793 7.27344C14.9844 7.48307 15.1325 7.74056 15.2373 8.0459C15.3421 8.35124 15.3945 8.69759 15.3945 9.08496V14.1299L14.499 13.6924C14.3258 13.8291 14.1322 13.9362 13.918 14.0137C13.7083 14.0911 13.4805 14.1299 13.2344 14.1299C12.9245 14.1299 12.6374 14.0684 12.373 13.9453C12.1133 13.8177 11.8877 13.6468 11.6963 13.4326C11.5094 13.2184 11.3636 12.9655 11.2588 12.6738C11.154 12.3822 11.1016 12.0677 11.1016 11.7305ZM12.3389 11.751C12.3389 11.9196 12.3639 12.0768 12.4141 12.2227C12.4642 12.3639 12.5348 12.4893 12.626 12.5986C12.7171 12.7035 12.8265 12.7855 12.9541 12.8447C13.0817 12.904 13.223 12.9336 13.3779 12.9336C13.5374 12.9336 13.6901 12.904 13.8359 12.8447C13.9818 12.7855 14.1003 12.7103 14.1914 12.6191V10.3701C13.8997 10.3656 13.64 10.3952 13.4121 10.459C13.1842 10.5182 12.9906 10.6094 12.8311 10.7324C12.6715 10.8509 12.5485 10.9967 12.4619 11.1699C12.3799 11.3385 12.3389 11.5322 12.3389 11.751ZM17.3975 3.11035H18.6143V10.0967H18.6211L20.6377 6.74023H21.9365L19.7832 10.2744L22.2988 14H20.7949L18.6143 10.7051V14H17.3975V3.11035ZM23.6729 6.74023H24.8896V11.4707C24.8896 12.4232 25.2611 12.8994 26.0039 12.8994C26.2546 12.8994 26.4779 12.8493 26.6738 12.749C26.8743 12.6442 27.043 12.5029 27.1797 12.3252V6.74023H28.3965V14.1367L27.4941 13.4941C27.2845 13.6582 27.0247 13.804 26.7148 13.9316C26.4095 14.0592 26.0768 14.123 25.7168 14.123C25.4342 14.123 25.1676 14.0729 24.917 13.9727C24.6709 13.8678 24.4544 13.7174 24.2676 13.5215C24.0853 13.321 23.9395 13.0749 23.8301 12.7832C23.7253 12.487 23.6729 12.1475 23.6729 11.7646V6.74023ZM30.3857 6.61035L31.4111 7.3418C31.5114 7.24154 31.6253 7.14811 31.7529 7.06152C31.8805 6.97493 32.015 6.89974 32.1562 6.83594C32.2975 6.77214 32.4411 6.72201 32.5869 6.68555C32.7327 6.64909 32.8786 6.63086 33.0244 6.63086C33.7536 6.63086 34.3027 6.861 34.6719 7.32129C35.041 7.77702 35.2256 8.43555 35.2256 9.29688V14H34.0088V9.31055C34.0088 8.84115 33.9131 8.4834 33.7217 8.2373C33.5348 7.99121 33.2568 7.86816 32.8877 7.86816C32.6689 7.86816 32.4456 7.92285 32.2178 8.03223C31.9945 8.13704 31.7894 8.30339 31.6025 8.53125V14H30.3857V6.61035ZM37.208 3.11035H38.4248V6.87695C38.5706 6.79036 38.7256 6.72428 38.8896 6.67871C39.0537 6.63314 39.2246 6.61035 39.4023 6.61035C39.7533 6.61035 40.0859 6.68327 40.4004 6.8291C40.7194 6.97493 40.9974 7.20052 41.2344 7.50586C41.4714 7.8112 41.6582 8.20085 41.7949 8.6748C41.9362 9.14876 42.0068 9.71387 42.0068 10.3701C42.0068 11.0264 41.9362 11.5915 41.7949 12.0654C41.6582 12.5394 41.4714 12.929 41.2344 13.2344C40.9974 13.5397 40.7194 13.7653 40.4004 13.9111C40.0859 14.057 39.7533 14.1299 39.4023 14.1299C38.8509 14.1299 38.3861 13.9339 38.0078 13.542L37.208 14.1162V3.11035ZM38.4248 12.6396C38.5433 12.749 38.6777 12.8333 38.8281 12.8926C38.9831 12.9518 39.1471 12.9814 39.3203 12.9814C39.5072 12.9814 39.6872 12.9404 39.8604 12.8584C40.0335 12.7764 40.1862 12.6374 40.3184 12.4414C40.4551 12.2409 40.5645 11.9743 40.6465 11.6416C40.7285 11.3044 40.7695 10.8805 40.7695 10.3701C40.7695 9.8597 40.7285 9.43815 40.6465 9.10547C40.5645 8.76823 40.4551 8.50163 40.3184 8.30566C40.1862 8.10514 40.0335 7.96387 39.8604 7.88184C39.6872 7.7998 39.5072 7.75879 39.3203 7.75879C38.9694 7.75879 38.6709 7.875 38.4248 8.10742V12.6396ZM44.4883 5.49609C44.3561 5.49609 44.2354 5.47331 44.126 5.42773C44.0166 5.38216 43.9232 5.32064 43.8457 5.24316C43.7682 5.16569 43.709 5.07682 43.668 4.97656C43.627 4.87174 43.6064 4.76237 43.6064 4.64844C43.6064 4.53451 43.627 4.42741 43.668 4.32715C43.709 4.22233 43.7682 4.13118 43.8457 4.05371C43.9232 3.97624 44.0166 3.91471 44.126 3.86914C44.2354 3.82357 44.3561 3.80078 44.4883 3.80078C44.6204 3.80078 44.7412 3.82357 44.8506 3.86914C44.96 3.91471 45.0534 3.97624 45.1309 4.05371C45.2083 4.13118 45.2676 4.22233 45.3086 4.32715C45.3496 4.42741 45.3701 4.53451 45.3701 4.64844C45.3701 4.76237 45.3496 4.87174 45.3086 4.97656C45.2676 5.07682 45.2083 5.16569 45.1309 5.24316C45.0534 5.32064 44.96 5.38216 44.8506 5.42773C44.7412 5.47331 44.6204 5.49609 44.4883 5.49609ZM43.8389 6.74023H45.0557V14H43.8389V6.74023ZM47.1748 6.15234C47.2705 6.0612 47.3639 5.96322 47.4551 5.8584C47.5508 5.75358 47.6351 5.64876 47.708 5.54395C47.7855 5.43457 47.8516 5.32747 47.9062 5.22266C47.9609 5.11328 48.002 5.01302 48.0293 4.92188C47.7695 4.89909 47.5622 4.80111 47.4072 4.62793C47.2523 4.45475 47.1748 4.25195 47.1748 4.01953C47.1748 3.89648 47.1976 3.78027 47.2432 3.6709C47.2887 3.56152 47.3525 3.46582 47.4346 3.38379C47.5166 3.2972 47.6146 3.22884 47.7285 3.17871C47.847 3.12858 47.9792 3.10352 48.125 3.10352C48.2572 3.10352 48.3825 3.12858 48.501 3.17871C48.624 3.22428 48.7311 3.2972 48.8223 3.39746C48.918 3.49316 48.9932 3.61393 49.0479 3.75977C49.1025 3.90104 49.1299 4.06738 49.1299 4.25879C49.1299 4.97428 48.6787 5.79915 47.7764 6.7334L47.1748 6.15234ZM51.3447 12.5645C51.5225 12.6829 51.7184 12.7786 51.9326 12.8516C52.1468 12.9199 52.361 12.9541 52.5752 12.9541C52.8486 12.9541 53.0697 12.8812 53.2383 12.7354C53.4115 12.5895 53.498 12.3936 53.498 12.1475C53.498 12.0199 53.473 11.9036 53.4229 11.7988C53.3727 11.6895 53.3066 11.5846 53.2246 11.4844C53.1426 11.3841 53.0469 11.2884 52.9375 11.1973C52.8327 11.1061 52.7233 11.015 52.6094 10.9238L52.1445 10.5547C51.7572 10.2539 51.4701 9.93717 51.2832 9.60449C51.0964 9.26725 51.0029 8.90495 51.0029 8.51758C51.0029 8.26237 51.0531 8.02083 51.1533 7.79297C51.2536 7.56055 51.3949 7.35775 51.5771 7.18457C51.7594 7.00684 51.9759 6.86784 52.2266 6.76758C52.4818 6.66276 52.762 6.61035 53.0674 6.61035C53.3317 6.61035 53.5869 6.63997 53.833 6.69922C54.0791 6.75391 54.332 6.84733 54.5918 6.97949L54.0859 8.11426C53.9173 7.99121 53.7441 7.90234 53.5664 7.84766C53.3932 7.79297 53.2178 7.76562 53.04 7.76562C52.9124 7.76562 52.7985 7.78613 52.6982 7.82715C52.598 7.86361 52.5137 7.91602 52.4453 7.98438C52.377 8.04818 52.3245 8.12337 52.2881 8.20996C52.2516 8.29199 52.2334 8.38086 52.2334 8.47656C52.2334 8.63151 52.2835 8.78418 52.3838 8.93457C52.484 9.08496 52.6595 9.2627 52.9102 9.46777L53.4434 9.90527C53.6803 10.1012 53.8809 10.2904 54.0449 10.4727C54.2135 10.6504 54.348 10.8281 54.4482 11.0059C54.5531 11.1836 54.6283 11.3659 54.6738 11.5527C54.724 11.7396 54.749 11.9355 54.749 12.1406C54.749 12.4232 54.6921 12.6852 54.5781 12.9268C54.4688 13.1683 54.3161 13.3779 54.1201 13.5557C53.9242 13.7334 53.6917 13.8724 53.4229 13.9727C53.154 14.0729 52.8623 14.123 52.5479 14.123C52.2061 14.123 51.8984 14.0775 51.625 13.9863C51.3561 13.8952 51.1055 13.779 50.873 13.6377L51.3447 12.5645ZM58.9941 2.97363C59.7734 2.94173 60.4525 3.01465 61.0312 3.19238C61.61 3.36556 62.0885 3.62533 62.4668 3.97168C62.8451 4.31803 63.1276 4.73958 63.3145 5.23633C63.5013 5.73307 63.5947 6.28223 63.5947 6.88379C63.5947 7.39876 63.5264 7.875 63.3896 8.3125C63.2575 8.75 63.0524 9.13737 62.7744 9.47461C62.501 9.80729 62.1546 10.083 61.7354 10.3018C61.3206 10.5205 60.8307 10.6686 60.2656 10.7461V14H58.9941V2.97363ZM60.2656 9.4541C60.5573 9.42676 60.8262 9.35612 61.0723 9.24219C61.3184 9.1237 61.5303 8.95736 61.708 8.74316C61.8857 8.52897 62.0247 8.26921 62.125 7.96387C62.2253 7.65397 62.2754 7.29395 62.2754 6.88379C62.2754 6.47363 62.2253 6.11589 62.125 5.81055C62.0247 5.50065 61.8857 5.23861 61.708 5.02441C61.5303 4.81022 61.3184 4.64616 61.0723 4.53223C60.8262 4.41374 60.5573 4.34082 60.2656 4.31348V9.4541ZM67.4297 14.1299C67.0879 14.1299 66.7598 14.0524 66.4453 13.8975C66.1309 13.7425 65.8506 13.5078 65.6045 13.1934C65.363 12.8789 65.1693 12.487 65.0234 12.0176C64.8776 11.5482 64.8047 10.999 64.8047 10.3701C64.8047 9.74121 64.8776 9.19206 65.0234 8.72266C65.1693 8.25326 65.363 7.86133 65.6045 7.54688C65.8506 7.23242 66.1309 6.99772 66.4453 6.84277C66.7598 6.68783 67.0879 6.61035 67.4297 6.61035C67.7715 6.61035 68.0996 6.68783 68.4141 6.84277C68.7285 6.99772 69.0065 7.23242 69.248 7.54688C69.4941 7.86133 69.6901 8.25326 69.8359 8.72266C69.9818 9.19206 70.0547 9.74121 70.0547 10.3701C70.0547 10.999 69.9818 11.5482 69.8359 12.0176C69.6901 12.487 69.4941 12.8789 69.248 13.1934C69.0065 13.5078 68.7285 13.7425 68.4141 13.8975C68.0996 14.0524 67.7715 14.1299 67.4297 14.1299ZM67.4297 12.9336C67.5938 12.9336 67.7555 12.8903 67.915 12.8037C68.0745 12.7126 68.2181 12.5667 68.3457 12.3662C68.4779 12.1657 68.5827 11.9014 68.6602 11.5732C68.7422 11.2451 68.7832 10.8441 68.7832 10.3701C68.7832 9.89616 68.7422 9.4974 68.6602 9.17383C68.5827 8.8457 68.4779 8.58138 68.3457 8.38086C68.2181 8.17578 68.0745 8.02995 67.915 7.94336C67.7555 7.85221 67.5938 7.80664 67.4297 7.80664C67.2656 7.80664 67.1038 7.85221 66.9443 7.94336C66.7848 8.02995 66.639 8.17578 66.5068 8.38086C66.3792 8.58138 66.2744 8.8457 66.1924 9.17383C66.1149 9.4974 66.0762 9.89616 66.0762 10.3701C66.0762 10.8441 66.1149 11.2451 66.1924 11.5732C66.2744 11.9014 66.3792 12.1657 66.5068 12.3662C66.639 12.5667 66.7848 12.7126 66.9443 12.8037C67.1038 12.8903 67.2656 12.9336 67.4297 12.9336ZM71.6338 6.61035L72.666 7.32812C72.9486 7.10938 73.2516 6.93848 73.5752 6.81543C73.8988 6.68783 74.2337 6.62402 74.5801 6.62402V7.89551C74.2155 7.89551 73.8919 7.93424 73.6094 8.01172C73.3314 8.08919 73.0898 8.2373 72.8848 8.45605V14H71.6338V6.61035ZM76.1729 7.88867H75.6328V6.74023H76.1729V4.32031H77.3896V6.74023H78.5518V7.88867H77.3896V11.1289C77.3896 11.4023 77.4102 11.6416 77.4512 11.8467C77.4967 12.0518 77.5697 12.2272 77.6699 12.373C77.7702 12.5143 77.9001 12.6283 78.0596 12.7148C78.2191 12.8014 78.415 12.8652 78.6475 12.9062V14.123C77.818 14.0866 77.1982 13.8245 76.7881 13.3369C76.3779 12.8447 76.1729 12.1042 76.1729 11.1152V7.88867ZM80.3564 7.88867H79.8027V6.74023H80.3564V6.33008C80.3564 5.86068 80.4134 5.42546 80.5273 5.02441C80.6458 4.62337 80.8122 4.27474 81.0264 3.97852C81.2451 3.67773 81.5049 3.44076 81.8057 3.26758C82.111 3.08984 82.4528 2.99414 82.8311 2.98047V4.17676C82.6169 4.20866 82.43 4.28613 82.2705 4.40918C82.111 4.52767 81.9788 4.68262 81.874 4.87402C81.7738 5.06543 81.6986 5.28646 81.6484 5.53711C81.5983 5.78776 81.5732 6.05664 81.5732 6.34375V6.74023H82.79V7.88867H81.5732V14H80.3564V7.88867ZM86.3789 14.1299C86.0371 14.1299 85.709 14.0524 85.3945 13.8975C85.0801 13.7425 84.7998 13.5078 84.5537 13.1934C84.3122 12.8789 84.1185 12.487 83.9727 12.0176C83.8268 11.5482 83.7539 10.999 83.7539 10.3701C83.7539 9.74121 83.8268 9.19206 83.9727 8.72266C84.1185 8.25326 84.3122 7.86133 84.5537 7.54688C84.7998 7.23242 85.0801 6.99772 85.3945 6.84277C85.709 6.68783 86.0371 6.61035 86.3789 6.61035C86.7207 6.61035 87.0488 6.68783 87.3633 6.84277C87.6777 6.99772 87.9557 7.23242 88.1973 7.54688C88.4434 7.86133 88.6393 8.25326 88.7852 8.72266C88.931 9.19206 89.0039 9.74121 89.0039 10.3701C89.0039 10.999 88.931 11.5482 88.7852 12.0176C88.6393 12.487 88.4434 12.8789 88.1973 13.1934C87.9557 13.5078 87.6777 13.7425 87.3633 13.8975C87.0488 14.0524 86.7207 14.1299 86.3789 14.1299ZM86.3789 12.9336C86.543 12.9336 86.7048 12.8903 86.8643 12.8037C87.0238 12.7126 87.1673 12.5667 87.2949 12.3662C87.4271 12.1657 87.5319 11.9014 87.6094 11.5732C87.6914 11.2451 87.7324 10.8441 87.7324 10.3701C87.7324 9.89616 87.6914 9.4974 87.6094 9.17383C87.5319 8.8457 87.4271 8.58138 87.2949 8.38086C87.1673 8.17578 87.0238 8.02995 86.8643 7.94336C86.7048 7.85221 86.543 7.80664 86.3789 7.80664C86.2148 7.80664 86.0531 7.85221 85.8936 7.94336C85.734 8.02995 85.5882 8.17578 85.4561 8.38086C85.3285 8.58138 85.2236 8.8457 85.1416 9.17383C85.0641 9.4974 85.0254 9.89616 85.0254 10.3701C85.0254 10.8441 85.0641 11.2451 85.1416 11.5732C85.2236 11.9014 85.3285 12.1657 85.4561 12.3662C85.5882 12.5667 85.734 12.7126 85.8936 12.8037C86.0531 12.8903 86.2148 12.9336 86.3789 12.9336ZM90.583 3.11035H91.7998V14H90.583V3.11035ZM94.6094 5.49609C94.4772 5.49609 94.3564 5.47331 94.2471 5.42773C94.1377 5.38216 94.0443 5.32064 93.9668 5.24316C93.8893 5.16569 93.8301 5.07682 93.7891 4.97656C93.748 4.87174 93.7275 4.76237 93.7275 4.64844C93.7275 4.53451 93.748 4.42741 93.7891 4.32715C93.8301 4.22233 93.8893 4.13118 93.9668 4.05371C94.0443 3.97624 94.1377 3.91471 94.2471 3.86914C94.3564 3.82357 94.4772 3.80078 94.6094 3.80078C94.7415 3.80078 94.8623 3.82357 94.9717 3.86914C95.0811 3.91471 95.1745 3.97624 95.252 4.05371C95.3294 4.13118 95.3887 4.22233 95.4297 4.32715C95.4707 4.42741 95.4912 4.53451 95.4912 4.64844C95.4912 4.76237 95.4707 4.87174 95.4297 4.97656C95.3887 5.07682 95.3294 5.16569 95.252 5.24316C95.1745 5.32064 95.0811 5.38216 94.9717 5.42773C94.8623 5.47331 94.7415 5.49609 94.6094 5.49609ZM93.96 6.74023H95.1768V14H93.96V6.74023ZM99.627 14.1299C99.2852 14.1299 98.957 14.0524 98.6426 13.8975C98.3281 13.7425 98.0479 13.5078 97.8018 13.1934C97.5602 12.8789 97.3665 12.487 97.2207 12.0176C97.0749 11.5482 97.002 10.999 97.002 10.3701C97.002 9.74121 97.0749 9.19206 97.2207 8.72266C97.3665 8.25326 97.5602 7.86133 97.8018 7.54688C98.0479 7.23242 98.3281 6.99772 98.6426 6.84277C98.957 6.68783 99.2852 6.61035 99.627 6.61035C99.9688 6.61035 100.297 6.68783 100.611 6.84277C100.926 6.99772 101.204 7.23242 101.445 7.54688C101.691 7.86133 101.887 8.25326 102.033 8.72266C102.179 9.19206 102.252 9.74121 102.252 10.3701C102.252 10.999 102.179 11.5482 102.033 12.0176C101.887 12.487 101.691 12.8789 101.445 13.1934C101.204 13.5078 100.926 13.7425 100.611 13.8975C100.297 14.0524 99.9688 14.1299 99.627 14.1299ZM99.627 12.9336C99.791 12.9336 99.9528 12.8903 100.112 12.8037C100.272 12.7126 100.415 12.5667 100.543 12.3662C100.675 12.1657 100.78 11.9014 100.857 11.5732C100.939 11.2451 100.98 10.8441 100.98 10.3701C100.98 9.89616 100.939 9.4974 100.857 9.17383C100.78 8.8457 100.675 8.58138 100.543 8.38086C100.415 8.17578 100.272 8.02995 100.112 7.94336C99.9528 7.85221 99.791 7.80664 99.627 7.80664C99.4629 7.80664 99.3011 7.85221 99.1416 7.94336C98.9821 8.02995 98.8363 8.17578 98.7041 8.38086C98.5765 8.58138 98.4717 8.8457 98.3896 9.17383C98.3122 9.4974 98.2734 9.89616 98.2734 10.3701C98.2734 10.8441 98.3122 11.2451 98.3896 11.5732C98.4717 11.9014 98.5765 12.1657 98.7041 12.3662C98.8363 12.5667 98.9821 12.7126 99.1416 12.8037C99.3011 12.8903 99.4629 12.9336 99.627 12.9336Z" fill="black"/>
<line x1="1" y1="15.5" x2="97.9101" y2="15.5" stroke="black"/>
</svg>
